<svg width="16" height="16" viewBox="0 0 16 16" fill="none" xmlns="http://www.w3.org/2000/svg">
<path d="M8 5.35225L11.4899 8.84211L10.5895 9.72144L8 7.13196L5.41052 9.72144L4.51014 8.84211L8 5.35225ZM8.00141 0C6.89494 0 5.85491 0.209966 4.88132 0.629897C3.90772 1.04983 3.06082 1.61972 2.34064 2.33959C1.62044 3.05946 1.05028 3.90598 0.63017 4.87915C0.210057 5.8523 0 6.89212 0 7.99859C0 9.10506 0.209966 10.1451 0.629897 11.1187C1.04983 12.0923 1.61972 12.9392 2.33959 13.6594C3.05946 14.3796 3.90598 14.9497 4.87915 15.3698C5.8523 15.7899 6.89212 16 7.99859 16C9.10506 16 10.1451 15.79 11.1187 15.3701C12.0923 14.9502 12.9392 14.3803 13.6594 13.6604C14.3796 12.9405 14.9497 12.094 15.3698 11.1209C15.7899 10.1477 16 9.10788 16 8.00141C16 6.89494 15.79 5.85491 15.3701 4.88132C14.9502 3.90772 14.3803 3.06082 13.6604 2.34064C12.9405 1.62044 12.094 1.05028 11.1209 0.630171C10.1477 0.210058 9.10788 0 8.00141 0ZM8 1.26314C9.88071 1.26314 11.4737 1.91577 12.779 3.22104C14.0842 4.52631 14.7369 6.11929 14.7369 8C14.7369 9.88071 14.0842 11.4737 12.779 12.779C11.4737 14.0842 9.88071 14.7369 8 14.7369C6.11929 14.7369 4.52631 14.0842 3.22104 12.779C1.91577 11.4737 1.26314 9.88071 1.26314 8C1.26314 6.11929 1.91577 4.52631 3.22104 3.22104C4.52631 1.91577 6.11929 1.26314 8 1.26314Z" fill="black"/>
</svg>
